<svg viewBox="0 0 960 468" role="img" aria-label="p50 to p999 round-trip latency per backend, log scale" xmlns="http://www.w3.org/2000/svg" width="960" height="468"><style>.grid{stroke:#3a3936;stroke-width:1}.axis{fill:#c3c2b7;font:11px 'IBM Plex Mono',ui-monospace,Menlo,monospace}.rowlabel{fill:#ffffff;font:12.5px 'IBM Plex Mono',ui-monospace,Menlo,monospace}.value{fill:#c3c2b7;font:11px 'IBM Plex Mono',ui-monospace,Menlo,monospace}.title{fill:#ffffff;font:600 14px 'IBM Plex Sans',system-ui,sans-serif}.sub{fill:#c3c2b7;font:11.5px 'IBM Plex Sans',system-ui,sans-serif}</style><rect width="960" height="468" fill="#1a1a19" rx="8"/><text class="title" x="16" y="20">Same host, eleven transports</text><text class="sub" x="16" y="36">Round trip at 5k/s, p50 → p99 → p99.9, log scale; pinned cores, zero drops</text><g transform="translate(0 44)"><line class="grid" x1="120.0" y1="16" x2="120.0" y2="390"/><text class="axis" x="120.0" y="406" text-anchor="middle">0.1 µs</text><line class="grid" x1="320.0" y1="16" x2="320.0" y2="390"/><text class="axis" x="320.0" y="406" text-anchor="middle">1.0 µs</text><line class="grid" x1="520.0" y1="16" x2="520.0" y2="390"/><text class="axis" x="520.0" y="406" text-anchor="middle">10.0 µs</text><line class="grid" x1="720.0" y1="16" x2="720.0" y2="390"/><text class="axis" x="720.0" y="406" text-anchor="middle">100 µs</text><line class="grid" x1="920.0" y1="16" x2="920.0" y2="390"/><text class="axis" x="920.0" y="406" text-anchor="middle">1.0 ms</text><g><title>shm @ 5k/s: p50 0.35 µs, p99 0.44 µs, p999 0.85 µs, max 67.84 µs, drops 0</title><text class="rowlabel" x="110" y="37.0" text-anchor="end">shm</text><line x1="229.1" y1="33.0" x2="306.3" y2="33.0" style="stroke:#3987e5" stroke-width="2"/><circle cx="306.3" cy="33.0" r="3.5" style="fill:#3987e5" opacity="0.45"/><circle cx="249.1" cy="33.0" r="3.5" style="fill:#3987e5" opacity="0.7"/><circle cx="229.1" cy="33.0" r="5" style="fill:#3987e5;stroke:#1a1a19" stroke-width="2"/><text class="value" x="220.1" y="37.0" text-anchor="end">0.35 µs</text></g><g><title>aeron-ipc @ 5k/s: p50 0.53 µs, p99 8.15 µs, p999 14.81 µs, max 27.92 µs, drops 0</title><text class="rowlabel" x="110" y="71.0" text-anchor="end">aeron-ipc</text><line x1="265.5" y1="67.0" x2="554.1" y2="67.0" style="stroke:#3987e5" stroke-width="2"/><circle cx="554.1" cy="67.0" r="3.5" style="fill:#3987e5" opacity="0.45"/><circle cx="502.3" cy="67.0" r="3.5" style="fill:#3987e5" opacity="0.7"/><circle cx="265.5" cy="67.0" r="5" style="fill:#3987e5;stroke:#1a1a19" stroke-width="2"/><text class="value" x="256.5" y="71.0" text-anchor="end">0.53 µs</text></g><g><title>iceoryx2 @ 5k/s: p50 0.81 µs, p99 0.94 µs, p999 2.29 µs, max 186 µs, drops 0</title><text class="rowlabel" x="110" y="105.0" text-anchor="end">iceoryx2</text><line x1="302.2" y1="101.0" x2="392.2" y2="101.0" style="stroke:#3987e5" stroke-width="2"/><circle cx="392.2" cy="101.0" r="3.5" style="fill:#3987e5" opacity="0.45"/><circle cx="314.8" cy="101.0" r="3.5" style="fill:#3987e5" opacity="0.7"/><circle cx="302.2" cy="101.0" r="5" style="fill:#3987e5;stroke:#1a1a19" stroke-width="2"/><text class="value" x="293.2" y="105.0" text-anchor="end">0.81 µs</text></g><g><title>uds @ 5k/s: p50 4.16 µs, p99 19.05 µs, p999 27.76 µs, max 161 µs, drops 0</title><text class="rowlabel" x="110" y="139.0" text-anchor="end">uds</text><line x1="443.7" y1="135.0" x2="608.7" y2="135.0" style="stroke:#d95926" stroke-width="2"/><circle cx="608.7" cy="135.0" r="3.5" style="fill:#d95926" opacity="0.45"/><circle cx="576.0" cy="135.0" r="3.5" style="fill:#d95926" opacity="0.7"/><circle cx="443.7" cy="135.0" r="5" style="fill:#d95926;stroke:#1a1a19" stroke-width="2"/><text class="value" x="434.7" y="139.0" text-anchor="end">4.16 µs</text></g><g><title>aeron-udp @ 5k/s: p50 5.03 µs, p99 20.43 µs, p999 24.70 µs, max 418 µs, drops 0</title><text class="rowlabel" x="110" y="173.0" text-anchor="end">aeron-udp</text><line x1="460.3" y1="169.0" x2="598.5" y2="169.0" style="stroke:#d95926" stroke-width="2"/><circle cx="598.5" cy="169.0" r="3.5" style="fill:#d95926" opacity="0.45"/><circle cx="582.1" cy="169.0" r="3.5" style="fill:#d95926" opacity="0.7"/><circle cx="460.3" cy="169.0" r="5" style="fill:#d95926;stroke:#1a1a19" stroke-width="2"/><text class="value" x="451.3" y="173.0" text-anchor="end">5.03 µs</text></g><g><title>udp @ 5k/s: p50 6.43 µs, p99 25.95 µs, p999 34.43 µs, max 175 µs, drops 0</title><text class="rowlabel" x="110" y="207.0" text-anchor="end">udp</text><line x1="481.6" y1="203.0" x2="627.4" y2="203.0" style="stroke:#d95926" stroke-width="2"/><circle cx="627.4" cy="203.0" r="3.5" style="fill:#d95926" opacity="0.45"/><circle cx="602.8" cy="203.0" r="3.5" style="fill:#d95926" opacity="0.7"/><circle cx="481.6" cy="203.0" r="5" style="fill:#d95926;stroke:#1a1a19" stroke-width="2"/><text class="value" x="472.6" y="207.0" text-anchor="end">6.43 µs</text></g><g><title>tcp @ 5k/s: p50 7.30 µs, p99 24.41 µs, p999 31.86 µs, max 148 µs, drops 0</title><text class="rowlabel" x="110" y="241.0" text-anchor="end">tcp</text><line x1="492.7" y1="237.0" x2="620.6" y2="237.0" style="stroke:#d95926" stroke-width="2"/><circle cx="620.6" cy="237.0" r="3.5" style="fill:#d95926" opacity="0.45"/><circle cx="597.5" cy="237.0" r="3.5" style="fill:#d95926" opacity="0.7"/><circle cx="492.7" cy="237.0" r="5" style="fill:#d95926;stroke:#1a1a19" stroke-width="2"/><text class="value" x="483.7" y="241.0" text-anchor="end">7.30 µs</text></g><g><title>redis @ 5k/s: p50 24.66 µs, p99 73.53 µs, p999 130 µs, max 310 µs, drops 0</title><text class="rowlabel" x="110" y="275.0" text-anchor="end">redis</text><line x1="598.4" y1="271.0" x2="742.6" y2="271.0" style="stroke:#199e70" stroke-width="2"/><circle cx="742.6" cy="271.0" r="3.5" style="fill:#199e70" opacity="0.45"/><circle cx="693.3" cy="271.0" r="3.5" style="fill:#199e70" opacity="0.7"/><circle cx="598.4" cy="271.0" r="5" style="fill:#199e70;stroke:#1a1a19" stroke-width="2"/><text class="value" x="589.4" y="275.0" text-anchor="end">24.66 µs</text></g><g><title>nats @ 5k/s: p50 39.81 µs, p99 100 µs, p999 156 µs, max 431 µs, drops 0</title><text class="rowlabel" x="110" y="309.0" text-anchor="end">nats</text><line x1="640.0" y1="305.0" x2="758.7" y2="305.0" style="stroke:#199e70" stroke-width="2"/><circle cx="758.7" cy="305.0" r="3.5" style="fill:#199e70" opacity="0.45"/><circle cx="720.2" cy="305.0" r="3.5" style="fill:#199e70" opacity="0.7"/><circle cx="640.0" cy="305.0" r="5" style="fill:#199e70;stroke:#1a1a19" stroke-width="2"/><text class="value" x="631.0" y="309.0" text-anchor="end">39.81 µs</text></g><g><title>jetstream @ 5k/s: p50 55.10 µs, p99 111 µs, p999 243 µs, max 3.7 ms, drops 0</title><text class="rowlabel" x="110" y="343.0" text-anchor="end">jetstream</text><line x1="668.2" y1="339.0" x2="797.3" y2="339.0" style="stroke:#199e70" stroke-width="2"/><circle cx="797.3" cy="339.0" r="3.5" style="fill:#199e70" opacity="0.45"/><circle cx="729.0" cy="339.0" r="3.5" style="fill:#199e70" opacity="0.7"/><circle cx="668.2" cy="339.0" r="5" style="fill:#199e70;stroke:#1a1a19" stroke-width="2"/><text class="value" x="659.2" y="343.0" text-anchor="end">55.10 µs</text></g><g><title>kafka @ 5k/s: p50 114 µs, p99 200 µs, p999 676 µs, max 2.2 ms, drops 0</title><text class="rowlabel" x="110" y="377.0" text-anchor="end">kafka</text><line x1="731.7" y1="373.0" x2="886.0" y2="373.0" style="stroke:#199e70" stroke-width="2"/><circle cx="886.0" cy="373.0" r="3.5" style="fill:#199e70" opacity="0.45"/><circle cx="780.1" cy="373.0" r="3.5" style="fill:#199e70" opacity="0.7"/><circle cx="731.7" cy="373.0" r="5" style="fill:#199e70;stroke:#1a1a19" stroke-width="2"/><text class="value" x="722.7" y="377.0" text-anchor="end">114 µs</text></g></g></svg>